<svg fill="none" height="18" viewBox="0 0 64 18" width="64" xmlns="http://www.w3.org/2000/svg" xmlns:xlink="http://www.w3.org/1999/xlink"><linearGradient id="a" gradientUnits="userSpaceOnUse" x1="-1" x2="66" y1="7.5" y2="7.5"><stop offset="0" stop-color="#8280ff"/><stop offset="1" stop-color="#4fd1c5"/></linearGradient><g fill="url(#a)"><path d="m.605469.195312h11.496131v2.871098h-7.89848v4.28906h7.17188v2.85933h-7.17188v3.9141h8.26168v2.8711h-11.859331z"/><path d="m27.688 3.80469-4.5469 6.59761 4.5469 6.5977h-3.7735l-3.2343-4.6523-3.2344 4.6523h-3.7852l4.5469-6.5977-4.5469-6.59761h3.7852l3.2344 4.65234 3.2343-4.65234z"/><path d="m34.8252 17.1875c-1.2969 0-2.4844-.2695-3.5625-.8086-1.0782-.5391-1.9454-1.3281-2.6016-2.3672-.6563-1.0469-.9844-2.25-.9844-3.6094 0-1.35933.3281-2.56246.9844-3.60933.6562-1.04688 1.5234-1.83985 2.6016-2.37891 1.0781-.53906 2.2656-.80859 3.5625-.80859 1.289 0 2.4726.26953 3.5507.80859 1.0782.53906 1.9454 1.33203 2.6016 2.37891.6641 1.04687.9961 2.25.9961 3.60933 0 1.3594-.332 2.5625-.9961 3.6094-.6562 1.0391-1.5234 1.8281-2.6016 2.3672-1.0781.5391-2.2617.8086-3.5507.8086zm0-2.8594c1.0468 0 1.9375-.3711 2.6718-1.1133.7422-.7421 1.1133-1.6796 1.1133-2.8125 0-1.14058-.3672-2.07808-1.1015-2.81246-.7344-.74218-1.629-1.11328-2.6836-1.11328-1.0625 0-1.961.36719-2.6954 1.10156-.7265.73438-1.0898 1.67579-1.0898 2.82418 0 1.1407.3633 2.0821 1.0898 2.8243.7344.7343 1.6329 1.1015 2.6954 1.1015z"/><path d="m53.8686.195312h3.5977v10.136688c0 2.1953-.6094 3.8868-1.8282 5.0742-1.2187 1.1876-2.8554 1.7813-4.9101 1.7813s-3.6953-.5937-4.9219-1.7813c-1.2188-1.1953-1.8281-2.8867-1.8281-5.0742v-10.136688h3.5976v10.359388c0 1.0469.2852 1.8672.8555 2.4609.5703.586 1.3359.8789 2.2969.8789.9531 0 1.7109-.2968 2.2734-.8906.5703-.5937.8555-1.4101.8555-2.4492z"/><path d="m60.2089.195312h3.5977v16.804688h-3.5977z"/></g></svg>